<?xml version="1.0" encoding="UTF-8" standalone="no"?>
<!DOCTYPE svg PUBLIC "-//W3C//DTD SVG 1.1//EN"
 "http://www.w3.org/Graphics/SVG/1.1/DTD/svg11.dtd">
<!-- Generated by graphviz version 2.30.1 (20130711.0844)
 -->
<!-- Title: controllers_diagram Pages: 1 -->
<svg width="745pt" height="676pt"
 viewBox="0.00 0.00 745.38 675.51" xmlns="http://www.w3.org/2000/svg" xmlns:xlink="http://www.w3.org/1999/xlink">
<g id="graph0" class="graph" transform="scale(1 1) rotate(0) translate(4 671.515)">
<title>controllers_diagram</title>
<polygon fill="white" stroke="white" points="-4,5 -4,-671.515 742.375,-671.515 742.375,5 -4,5"/>
<!-- _diagram_info -->
<g id="node1" class="node"><title>_diagram_info</title>
<text text-anchor="start" x="538" y="-334" font-family="Times,serif" font-size="13.00">Controllers diagram</text>
<text text-anchor="start" x="538" y="-318.4" font-family="Times,serif" font-size="13.00">Date: Jul 11 2013 &#45; 09:46</text>
<text text-anchor="start" x="538" y="-302.8" font-family="Times,serif" font-size="13.00">Migration version: 20130710103018</text>
<text text-anchor="start" x="538" y="-287.2" font-family="Times,serif" font-size="13.00">Generated by RailRoady 1.1.0</text>
<text text-anchor="start" x="538" y="-271.6" font-family="Times,serif" font-size="13.00">http://railroady.prestonlee.com</text>
</g>
<!-- ApplicationController -->
<g id="node2" class="node"><title>ApplicationController</title>
<path fill="none" stroke="black" d="M256.433,-207.275C256.433,-207.275 435.068,-207.275 435.068,-207.275 441.068,-207.275 447.068,-213.275 447.068,-219.275 447.068,-219.275 447.068,-377.675 447.068,-377.675 447.068,-383.675 441.068,-389.675 435.068,-389.675 435.068,-389.675 256.433,-389.675 256.433,-389.675 250.433,-389.675 244.433,-383.675 244.433,-377.675 244.433,-377.675 244.433,-219.275 244.433,-219.275 244.433,-213.275 250.433,-207.275 256.433,-207.275"/>
<text text-anchor="middle" x="345.751" y="-371.675" font-family="Times,serif" font-size="14.00">ApplicationController</text>
<polyline fill="none" stroke="black" points="244.433,-364.875 447.068,-364.875 "/>
<text text-anchor="start" x="252.433" y="-346.875" font-family="Times,serif" font-size="14.00">_one_time_conditions_valid_50?</text>
<text text-anchor="start" x="252.433" y="-330.075" font-family="Times,serif" font-size="14.00">_one_time_conditions_valid_52?</text>
<text text-anchor="start" x="252.433" y="-313.275" font-family="Times,serif" font-size="14.00">current_user</text>
<text text-anchor="start" x="252.433" y="-296.475" font-family="Times,serif" font-size="14.00">logged_in?</text>
<polyline fill="none" stroke="black" points="244.433,-289.675 447.068,-289.675 "/>
<polyline fill="none" stroke="black" points="244.433,-265.675 447.068,-265.675 "/>
<text text-anchor="start" x="252.433" y="-247.675" font-family="Times,serif" font-size="14.00">_layout</text>
<text text-anchor="start" x="252.433" y="-230.875" font-family="Times,serif" font-size="14.00">authenticate</text>
<text text-anchor="start" x="252.433" y="-214.075" font-family="Times,serif" font-size="14.00">setup_ransack_search</text>
</g>
<!-- IngredientsController -->
<g id="node3" class="node"><title>IngredientsController</title>
<path fill="none" stroke="black" d="M476.613,-0.5C476.613,-0.5 589.138,-0.5 589.138,-0.5 595.138,-0.5 601.138,-6.5 601.138,-12.5 601.138,-12.5 601.138,-187.7 601.138,-187.7 601.138,-193.7 595.138,-199.7 589.138,-199.7 589.138,-199.7 476.613,-199.7 476.613,-199.7 470.613,-199.7 464.613,-193.7 464.613,-187.7 464.613,-187.7 464.613,-12.5 464.613,-12.5 464.613,-6.5 470.613,-0.5 476.613,-0.5"/>
<text text-anchor="middle" x="532.876" y="-181.7" font-family="Times,serif" font-size="14.00">IngredientsController</text>
<polyline fill="none" stroke="black" points="464.613,-174.9 601.138,-174.9 "/>
<text text-anchor="start" x="472.613" y="-156.9" font-family="Times,serif" font-size="14.00">create</text>
<text text-anchor="start" x="472.613" y="-140.1" font-family="Times,serif" font-size="14.00">destroy</text>
<text text-anchor="start" x="472.613" y="-123.3" font-family="Times,serif" font-size="14.00">edit</text>
<text text-anchor="start" x="472.613" y="-106.5" font-family="Times,serif" font-size="14.00">index</text>
<text text-anchor="start" x="472.613" y="-89.7" font-family="Times,serif" font-size="14.00">new</text>
<text text-anchor="start" x="472.613" y="-72.9" font-family="Times,serif" font-size="14.00">show</text>
<text text-anchor="start" x="472.613" y="-56.1" font-family="Times,serif" font-size="14.00">update</text>
<polyline fill="none" stroke="black" points="464.613,-49.3 601.138,-49.3 "/>
<polyline fill="none" stroke="black" points="464.613,-25.3 601.138,-25.3 "/>
<text text-anchor="start" x="472.613" y="-7.3" font-family="Times,serif" font-size="14.00">_layout</text>
</g>
<!-- ApplicationController&#45;&gt;IngredientsController -->
<g id="edge1" class="edge"><title>ApplicationController&#45;&gt;IngredientsController</title>
<path fill="none" stroke="black" d="M431.919,-207.126C442.854,-195.534 453.924,-183.798 464.528,-172.557"/>
</g>
<!-- RecipeIngredientsController -->
<g id="node4" class="node"><title>RecipeIngredientsController</title>
<path fill="none" stroke="black" d="M78.3149,-0.60476C78.3149,-0.60476 229.708,-0.60476 229.708,-0.60476 235.708,-0.60476 241.708,-6.60476 241.708,-12.6048 241.708,-12.6048 241.708,-187.805 241.708,-187.805 241.708,-193.805 235.708,-199.805 229.708,-199.805 229.708,-199.805 78.3149,-199.805 78.3149,-199.805 72.3149,-199.805 66.3149,-193.805 66.3149,-187.805 66.3149,-187.805 66.3149,-12.6048 66.3149,-12.6048 66.3149,-6.60476 72.3149,-0.60476 78.3149,-0.60476"/>
<text text-anchor="middle" x="154.012" y="-181.805" font-family="Times,serif" font-size="14.00">RecipeIngredientsController</text>
<polyline fill="none" stroke="black" points="66.3149,-175.005 241.708,-175.005 "/>
<text text-anchor="start" x="74.3149" y="-157.005" font-family="Times,serif" font-size="14.00">create</text>
<text text-anchor="start" x="74.3149" y="-140.205" font-family="Times,serif" font-size="14.00">destroy</text>
<text text-anchor="start" x="74.3149" y="-123.405" font-family="Times,serif" font-size="14.00">edit</text>
<text text-anchor="start" x="74.3149" y="-106.605" font-family="Times,serif" font-size="14.00">index</text>
<text text-anchor="start" x="74.3149" y="-89.8048" font-family="Times,serif" font-size="14.00">new</text>
<text text-anchor="start" x="74.3149" y="-73.0048" font-family="Times,serif" font-size="14.00">show</text>
<text text-anchor="start" x="74.3149" y="-56.2048" font-family="Times,serif" font-size="14.00">update</text>
<polyline fill="none" stroke="black" points="66.3149,-49.4048 241.708,-49.4048 "/>
<polyline fill="none" stroke="black" points="66.3149,-25.4048 241.708,-25.4048 "/>
<text text-anchor="start" x="74.3149" y="-7.40476" font-family="Times,serif" font-size="14.00">_layout</text>
</g>
<!-- ApplicationController&#45;&gt;RecipeIngredientsController -->
<g id="edge2" class="edge"><title>ApplicationController&#45;&gt;RecipeIngredientsController</title>
<path fill="none" stroke="black" d="M257.458,-207.174C252.249,-201.788 247.009,-196.37 241.802,-190.986"/>
</g>
<!-- RecipesController -->
<g id="node5" class="node"><title>RecipesController</title>
<path fill="none" stroke="black" d="M12,-357.342C12,-357.342 197.635,-357.342 197.635,-357.342 203.635,-357.342 209.635,-363.342 209.635,-369.342 209.635,-369.342 209.635,-594.942 209.635,-594.942 209.635,-600.942 203.635,-606.942 197.635,-606.942 197.635,-606.942 12,-606.942 12,-606.942 6,-606.942 5.68434e-14,-600.942 5.68434e-14,-594.942 5.68434e-14,-594.942 5.68434e-14,-369.342 5.68434e-14,-369.342 5.68434e-14,-363.342 6,-357.342 12,-357.342"/>
<text text-anchor="middle" x="104.817" y="-588.942" font-family="Times,serif" font-size="14.00">RecipesController</text>
<polyline fill="none" stroke="black" points="5.68434e-14,-582.142 209.635,-582.142 "/>
<text text-anchor="start" x="8" y="-564.142" font-family="Times,serif" font-size="14.00">_callback_before_193</text>
<text text-anchor="start" x="8" y="-547.342" font-family="Times,serif" font-size="14.00">_one_time_conditions_valid_194?</text>
<text text-anchor="start" x="8" y="-530.542" font-family="Times,serif" font-size="14.00">create</text>
<text text-anchor="start" x="8" y="-513.742" font-family="Times,serif" font-size="14.00">destroy</text>
<text text-anchor="start" x="8" y="-496.942" font-family="Times,serif" font-size="14.00">edit</text>
<text text-anchor="start" x="8" y="-480.142" font-family="Times,serif" font-size="14.00">index</text>
<text text-anchor="start" x="8" y="-463.342" font-family="Times,serif" font-size="14.00">new</text>
<text text-anchor="start" x="8" y="-446.542" font-family="Times,serif" font-size="14.00">search_users_recipes</text>
<text text-anchor="start" x="8" y="-429.742" font-family="Times,serif" font-size="14.00">show</text>
<text text-anchor="start" x="8" y="-412.942" font-family="Times,serif" font-size="14.00">update</text>
<polyline fill="none" stroke="black" points="5.68434e-14,-406.142 209.635,-406.142 "/>
<polyline fill="none" stroke="black" points="5.68434e-14,-382.142 209.635,-382.142 "/>
<text text-anchor="start" x="8" y="-364.142" font-family="Times,serif" font-size="14.00">_layout</text>
</g>
<!-- ApplicationController&#45;&gt;RecipesController -->
<g id="edge3" class="edge"><title>ApplicationController&#45;&gt;RecipesController</title>
<path fill="none" stroke="black" d="M244.272,-375.834C232.826,-384.559 221.145,-393.464 209.658,-402.221"/>
</g>
<!-- SessionsController -->
<g id="node6" class="node"><title>SessionsController</title>
<path fill="none" stroke="black" d="M531.112,-419.656C531.112,-419.656 628.892,-419.656 628.892,-419.656 634.892,-419.656 640.892,-425.656 640.892,-431.656 640.892,-431.656 640.892,-539.656 640.892,-539.656 640.892,-545.656 634.892,-551.656 628.892,-551.656 628.892,-551.656 531.112,-551.656 531.112,-551.656 525.112,-551.656 519.112,-545.656 519.112,-539.656 519.112,-539.656 519.112,-431.656 519.112,-431.656 519.112,-425.656 525.112,-419.656 531.112,-419.656"/>
<text text-anchor="middle" x="580.002" y="-533.656" font-family="Times,serif" font-size="14.00">SessionsController</text>
<polyline fill="none" stroke="black" points="519.112,-526.856 640.892,-526.856 "/>
<text text-anchor="start" x="527.112" y="-508.856" font-family="Times,serif" font-size="14.00">create</text>
<text text-anchor="start" x="527.112" y="-492.056" font-family="Times,serif" font-size="14.00">destroy</text>
<text text-anchor="start" x="527.112" y="-475.256" font-family="Times,serif" font-size="14.00">new</text>
<polyline fill="none" stroke="black" points="519.112,-468.456 640.892,-468.456 "/>
<polyline fill="none" stroke="black" points="519.112,-444.456 640.892,-444.456 "/>
<text text-anchor="start" x="527.112" y="-426.456" font-family="Times,serif" font-size="14.00">_layout</text>
</g>
<!-- ApplicationController&#45;&gt;SessionsController -->
<g id="edge4" class="edge"><title>ApplicationController&#45;&gt;SessionsController</title>
<path fill="none" stroke="black" d="M447.134,-379.487C471.617,-399.05 497.035,-419.36 519.002,-436.914"/>
</g>
<!-- UsersController -->
<g id="node7" class="node"><title>UsersController</title>
<path fill="none" stroke="black" d="M299.215,-484.615C299.215,-484.615 380.643,-484.615 380.643,-484.615 386.643,-484.615 392.643,-490.615 392.643,-496.615 392.643,-496.615 392.643,-655.015 392.643,-655.015 392.643,-661.015 386.643,-667.015 380.643,-667.015 380.643,-667.015 299.215,-667.015 299.215,-667.015 293.215,-667.015 287.215,-661.015 287.215,-655.015 287.215,-655.015 287.215,-496.615 287.215,-496.615 287.215,-490.615 293.215,-484.615 299.215,-484.615"/>
<text text-anchor="middle" x="339.929" y="-649.015" font-family="Times,serif" font-size="14.00">UsersController</text>
<polyline fill="none" stroke="black" points="287.215,-642.215 392.643,-642.215 "/>
<text text-anchor="start" x="295.215" y="-624.215" font-family="Times,serif" font-size="14.00">create</text>
<text text-anchor="start" x="295.215" y="-607.415" font-family="Times,serif" font-size="14.00">dashboard</text>
<text text-anchor="start" x="295.215" y="-590.615" font-family="Times,serif" font-size="14.00">edit</text>
<text text-anchor="start" x="295.215" y="-573.815" font-family="Times,serif" font-size="14.00">index</text>
<text text-anchor="start" x="295.215" y="-557.015" font-family="Times,serif" font-size="14.00">new</text>
<text text-anchor="start" x="295.215" y="-540.215" font-family="Times,serif" font-size="14.00">update</text>
<polyline fill="none" stroke="black" points="287.215,-533.415 392.643,-533.415 "/>
<polyline fill="none" stroke="black" points="287.215,-509.415 392.643,-509.415 "/>
<text text-anchor="start" x="295.215" y="-491.415" font-family="Times,serif" font-size="14.00">_layout</text>
</g>
<!-- ApplicationController&#45;&gt;UsersController -->
<g id="edge5" class="edge"><title>ApplicationController&#45;&gt;UsersController</title>
<path fill="none" stroke="black" d="M343.828,-390.055C343.193,-420.349 342.485,-454.044 341.849,-484.331"/>
</g>
</g>
</svg>
