<?xml version="1.0" encoding="UTF-8" standalone="no"?>
<!DOCTYPE svg PUBLIC "-//W3C//DTD SVG 1.1//EN"
 "http://www.w3.org/Graphics/SVG/1.1/DTD/svg11.dtd">
<!-- Generated by graphviz version 2.30.1 (20130711.0844)
 -->
<!-- Title: models_diagram Pages: 1 -->
<svg width="792pt" height="590pt"
 viewBox="0.00 0.00 792.00 590.00" xmlns="http://www.w3.org/2000/svg" xmlns:xlink="http://www.w3.org/1999/xlink">
<g id="graph0" class="graph" transform="scale(1 1) rotate(0) translate(4 586)">
<title>models_diagram</title>
<polygon fill="white" stroke="white" points="-4,5 -4,-586 789,-586 789,5 -4,5"/>
<!-- _diagram_info -->
<g id="node1" class="node"><title>_diagram_info</title>
<text text-anchor="start" x="7.31226" y="-532" font-family="Times,serif" font-size="13.00">Models diagram</text>
<text text-anchor="start" x="7.31226" y="-516.4" font-family="Times,serif" font-size="13.00">Date: Jul 11 2013 &#45; 09:46</text>
<text text-anchor="start" x="7.31226" y="-500.8" font-family="Times,serif" font-size="13.00">Migration version: 20130710103018</text>
<text text-anchor="start" x="7.31226" y="-485.2" font-family="Times,serif" font-size="13.00">Generated by RailRoady 1.1.0</text>
<text text-anchor="start" x="7.31226" y="-469.6" font-family="Times,serif" font-size="13.00">http://railroady.prestonlee.com</text>
</g>
<!-- Ability -->
<g id="node2" class="node"><title>Ability</title>
<polygon fill="none" stroke="black" points="225.166,-481.2 225.166,-530.8 280.834,-530.8 280.834,-481.2 225.166,-481.2"/>
<text text-anchor="middle" x="253" y="-512.8" font-family="Times,serif" font-size="14.00">Ability</text>
<polyline fill="none" stroke="black" points="225.166,-506 280.834,-506 "/>
<text text-anchor="middle" x="253" y="-488" font-family="Times,serif" font-size="14.00"> </text>
</g>
<!-- Category -->
<g id="node3" class="node"><title>Category</title>
<path fill="none" stroke="black" d="M310.495,-456C310.495,-456 419.505,-456 419.505,-456 425.505,-456 431.505,-462 431.505,-468 431.505,-468 431.505,-544 431.505,-544 431.505,-550 425.505,-556 419.505,-556 419.505,-556 310.495,-556 310.495,-556 304.495,-556 298.495,-550 298.495,-544 298.495,-544 298.495,-468 298.495,-468 298.495,-462 304.495,-456 310.495,-456"/>
<text text-anchor="middle" x="365" y="-538" font-family="Times,serif" font-size="14.00">Category</text>
<polyline fill="none" stroke="black" points="298.495,-531.2 431.505,-531.2 "/>
<text text-anchor="start" x="306.495" y="-513.2" font-family="Times,serif" font-size="14.00">id :integer</text>
<text text-anchor="start" x="306.495" y="-496.4" font-family="Times,serif" font-size="14.00">name :text</text>
<text text-anchor="start" x="306.495" y="-479.6" font-family="Times,serif" font-size="14.00">created_at :datetime</text>
<text text-anchor="start" x="306.495" y="-462.8" font-family="Times,serif" font-size="14.00">updated_at :datetime</text>
</g>
<!-- Recipe -->
<g id="node5" class="node"><title>Recipe</title>
<path fill="none" stroke="black" d="M418.495,-190.6C418.495,-190.6 527.505,-190.6 527.505,-190.6 533.505,-190.6 539.505,-196.6 539.505,-202.6 539.505,-202.6 539.505,-379.4 539.505,-379.4 539.505,-385.4 533.505,-391.4 527.505,-391.4 527.505,-391.4 418.495,-391.4 418.495,-391.4 412.495,-391.4 406.495,-385.4 406.495,-379.4 406.495,-379.4 406.495,-202.6 406.495,-202.6 406.495,-196.6 412.495,-190.6 418.495,-190.6"/>
<text text-anchor="middle" x="473" y="-373.4" font-family="Times,serif" font-size="14.00">Recipe</text>
<polyline fill="none" stroke="black" points="406.495,-366.6 539.505,-366.6 "/>
<text text-anchor="start" x="414.495" y="-348.6" font-family="Times,serif" font-size="14.00">id :integer</text>
<text text-anchor="start" x="414.495" y="-331.8" font-family="Times,serif" font-size="14.00">name :string</text>
<text text-anchor="start" x="414.495" y="-315" font-family="Times,serif" font-size="14.00">description :text</text>
<text text-anchor="start" x="414.495" y="-298.2" font-family="Times,serif" font-size="14.00">picture :string</text>
<text text-anchor="start" x="414.495" y="-281.4" font-family="Times,serif" font-size="14.00">instructions :text</text>
<text text-anchor="start" x="414.495" y="-264.6" font-family="Times,serif" font-size="14.00">created_at :datetime</text>
<text text-anchor="start" x="414.495" y="-247.8" font-family="Times,serif" font-size="14.00">updated_at :datetime</text>
<text text-anchor="start" x="414.495" y="-231" font-family="Times,serif" font-size="14.00">category_id :integer</text>
<text text-anchor="start" x="414.495" y="-214.2" font-family="Times,serif" font-size="14.00">user_id :string</text>
<text text-anchor="start" x="414.495" y="-197.4" font-family="Times,serif" font-size="14.00">recipe_image :string</text>
</g>
<!-- Category&#45;&gt;Recipe -->
<g id="edge1" class="edge"><title>Category&#45;&gt;Recipe</title>
<path fill="none" stroke="#ca7661" d="M393.637,-448.521C401.12,-433.764 409.442,-417.35 417.804,-400.86"/>
<ellipse fill="none" stroke="#ca7661" cx="391.722" cy="-452.298" rx="4.00002" ry="4.00002"/>
<polygon fill="#ca7661" stroke="#ca7661" points="417.925,-400.62 426.461,-393.736 420.186,-396.16 422.447,-391.701 422.447,-391.701 422.447,-391.701 420.186,-396.16 418.434,-389.666 417.925,-400.62 417.925,-400.62"/>
</g>
<!-- Ingredient -->
<g id="node4" class="node"><title>Ingredient</title>
<path fill="none" stroke="black" d="M634.495,-456C634.495,-456 743.505,-456 743.505,-456 749.505,-456 755.505,-462 755.505,-468 755.505,-468 755.505,-544 755.505,-544 755.505,-550 749.505,-556 743.505,-556 743.505,-556 634.495,-556 634.495,-556 628.495,-556 622.495,-550 622.495,-544 622.495,-544 622.495,-468 622.495,-468 622.495,-462 628.495,-456 634.495,-456"/>
<text text-anchor="middle" x="689" y="-538" font-family="Times,serif" font-size="14.00">Ingredient</text>
<polyline fill="none" stroke="black" points="622.495,-531.2 755.505,-531.2 "/>
<text text-anchor="start" x="630.495" y="-513.2" font-family="Times,serif" font-size="14.00">id :integer</text>
<text text-anchor="start" x="630.495" y="-496.4" font-family="Times,serif" font-size="14.00">name :string</text>
<text text-anchor="start" x="630.495" y="-479.6" font-family="Times,serif" font-size="14.00">created_at :datetime</text>
<text text-anchor="start" x="630.495" y="-462.8" font-family="Times,serif" font-size="14.00">updated_at :datetime</text>
</g>
<!-- RecipeIngredient -->
<g id="node6" class="node"><title>RecipeIngredient</title>
<path fill="none" stroke="black" d="M659.546,-1.2C659.546,-1.2 772.454,-1.2 772.454,-1.2 778.454,-1.2 784.454,-7.2 784.454,-13.2 784.454,-13.2 784.454,-122.8 784.454,-122.8 784.454,-128.8 778.454,-134.8 772.454,-134.8 772.454,-134.8 659.546,-134.8 659.546,-134.8 653.546,-134.8 647.546,-128.8 647.546,-122.8 647.546,-122.8 647.546,-13.2 647.546,-13.2 647.546,-7.2 653.546,-1.2 659.546,-1.2"/>
<text text-anchor="middle" x="716" y="-116.8" font-family="Times,serif" font-size="14.00">RecipeIngredient</text>
<polyline fill="none" stroke="black" points="647.546,-110 784.454,-110 "/>
<text text-anchor="start" x="655.546" y="-92" font-family="Times,serif" font-size="14.00">id :integer</text>
<text text-anchor="start" x="655.546" y="-75.2" font-family="Times,serif" font-size="14.00">ingredient_id :integer</text>
<text text-anchor="start" x="655.546" y="-58.4" font-family="Times,serif" font-size="14.00">recipe_id :integer</text>
<text text-anchor="start" x="655.546" y="-41.6" font-family="Times,serif" font-size="14.00">amount :string</text>
<text text-anchor="start" x="655.546" y="-24.8" font-family="Times,serif" font-size="14.00">created_at :datetime</text>
<text text-anchor="start" x="655.546" y="-8" font-family="Times,serif" font-size="14.00">updated_at :datetime</text>
</g>
<!-- Ingredient&#45;&gt;RecipeIngredient -->
<g id="edge2" class="edge"><title>Ingredient&#45;&gt;RecipeIngredient</title>
<path fill="none" stroke="#cb7f97" d="M692.545,-447.758C697.352,-370.131 705.95,-231.291 711.294,-144.998"/>
<ellipse fill="none" stroke="#cb7f97" cx="692.292" cy="-451.84" rx="4" ry="4"/>
<polygon fill="#cb7f97" stroke="#cb7f97" points="711.295,-144.983 716.404,-135.281 711.604,-139.993 711.913,-135.003 711.913,-135.003 711.913,-135.003 711.604,-139.993 707.421,-134.724 711.295,-144.983 711.295,-144.983"/>
</g>
<!-- Ingredient&#45;&gt;Recipe -->
<g id="edge3" class="edge"><title>Ingredient&#45;&gt;Recipe</title>
<path fill="none" stroke="#a10847" d="M631.748,-448.543C605.802,-422.958 574.799,-392.385 547.104,-365.075"/>
<polygon fill="#a10847" stroke="#a10847" points="632.054,-448.845 636.014,-459.07 635.614,-452.355 639.174,-455.866 639.174,-455.866 639.174,-455.866 635.614,-452.355 642.334,-452.662 632.054,-448.845 632.054,-448.845"/>
<polygon fill="#a10847" stroke="#a10847" points="546.885,-364.859 542.924,-354.633 543.325,-361.348 539.765,-357.838 539.765,-357.838 539.765,-357.838 543.325,-361.348 536.605,-361.042 546.885,-364.859 546.885,-364.859"/>
</g>
<!-- ActsAsTaggableOn::Tagging -->
<g id="node8" class="node"><title>ActsAsTaggableOn::Tagging</title>
<ellipse fill="none" stroke="black" cx="506" cy="-68" rx="123.097" ry="18"/>
<text text-anchor="middle" x="506" y="-62.4" font-family="Times,serif" font-size="14.00">ActsAsTaggableOn::Tagging</text>
</g>
<!-- Recipe&#45;&gt;ActsAsTaggableOn::Tagging -->
<g id="edge4" class="edge"><title>Recipe&#45;&gt;ActsAsTaggableOn::Tagging</title>
<path fill="none" stroke="#7cd276" d="M497.42,-182.285C497.985,-178.822 498.514,-175.387 499,-172 502.66,-146.467 504.417,-117.09 505.254,-96.261"/>
<ellipse fill="none" stroke="#7cd276" cx="496.709" cy="-186.461" rx="4.00001" ry="4.00001"/>
<polygon fill="#7cd276" stroke="#7cd276" points="505.256,-96.2069 510.11,-86.3741 505.435,-91.2101 505.613,-86.2133 505.613,-86.2133 505.613,-86.2133 505.435,-91.2101 501.116,-86.0525 505.256,-96.2069 505.256,-96.2069"/>
<text text-anchor="middle" x="524.721" y="-157.4" font-family="Times,serif" font-size="14.00">taggings</text>
</g>
<!-- ActsAsTaggableOn::Tag -->
<g id="node9" class="node"><title>ActsAsTaggableOn::Tag</title>
<ellipse fill="none" stroke="black" cx="258" cy="-68" rx="106.344" ry="18"/>
<text text-anchor="middle" x="258" y="-62.4" font-family="Times,serif" font-size="14.00">ActsAsTaggableOn::Tag</text>
</g>
<!-- Recipe&#45;&gt;ActsAsTaggableOn::Tag -->
<g id="edge5" class="edge"><title>Recipe&#45;&gt;ActsAsTaggableOn::Tag</title>
<path fill="none" stroke="#5a305e" d="M397.413,-257.411C359.792,-237.687 316.501,-209.117 288.572,-172 271.898,-149.841 264.28,-118.681 260.823,-96.4478"/>
<polygon fill="#5a305e" stroke="#5a305e" points="397.441,-257.425 404.29,-265.989 401.891,-259.705 406.341,-261.984 406.341,-261.984 406.341,-261.984 401.891,-259.705 408.393,-257.979 397.441,-257.425 397.441,-257.425"/>
<polygon fill="#5a305e" stroke="#5a305e" points="260.794,-96.2369 263.897,-85.7192 260.116,-91.2831 259.439,-86.3292 259.439,-86.3292 259.439,-86.3292 260.116,-91.2831 254.98,-86.9392 260.794,-96.2369 260.794,-96.2369"/>
<text text-anchor="middle" x="315.214" y="-157.4" font-family="Times,serif" font-size="14.00">base_tags</text>
</g>
<!-- Recipe&#45;&gt;ActsAsTaggableOn::Tagging -->
<g id="edge6" class="edge"><title>Recipe&#45;&gt;ActsAsTaggableOn::Tagging</title>
<path fill="none" stroke="#985670" d="M418.623,-182.416C418.327,-172.773 419.728,-163.187 423.455,-154 433.513,-129.205 454.662,-107.662 473.033,-92.4678"/>
<ellipse fill="none" stroke="#985670" cx="418.945" cy="-186.534" rx="4" ry="4"/>
<polygon fill="#985670" stroke="#985670" points="473.405,-92.1721 484.031,-89.4654 477.317,-89.0583 481.229,-85.9445 481.229,-85.9445 481.229,-85.9445 477.317,-89.0583 478.427,-82.4236 473.405,-92.1721 473.405,-92.1721"/>
<text text-anchor="middle" x="458.772" y="-157.4" font-family="Times,serif" font-size="14.00">tag_taggings</text>
</g>
<!-- Recipe&#45;&gt;ActsAsTaggableOn::Tag -->
<g id="edge7" class="edge"><title>Recipe&#45;&gt;ActsAsTaggableOn::Tag</title>
<path fill="none" stroke="#30b6e0" d="M399.224,-212.214C380.934,-193.098 361.324,-172.742 343,-154 322.757,-133.295 299.488,-110.065 282.419,-93.1288"/>
<polygon fill="#30b6e0" stroke="#30b6e0" points="399.253,-212.245 402.91,-222.583 402.708,-215.859 406.163,-219.473 406.163,-219.473 406.163,-219.473 402.708,-215.859 409.416,-216.364 399.253,-212.245 399.253,-212.245"/>
<polygon fill="#30b6e0" stroke="#30b6e0" points="282.149,-92.8612 278.214,-82.6257 278.598,-89.3415 275.047,-85.8219 275.047,-85.8219 275.047,-85.8219 278.598,-89.3415 271.879,-89.0182 282.149,-92.8612 282.149,-92.8612"/>
<text text-anchor="middle" x="368.276" y="-157.4" font-family="Times,serif" font-size="14.00">tags</text>
</g>
<!-- Recipe&#45;&gt;RecipeIngredient -->
<g id="edge8" class="edge"><title>Recipe&#45;&gt;RecipeIngredient</title>
<path fill="none" stroke="#f4fc7a" d="M545.67,-223.909C575.362,-196.906 609.721,-165.657 639.77,-138.329"/>
<ellipse fill="none" stroke="#f4fc7a" cx="542.681" cy="-226.627" rx="4.00002" ry="4.00002"/>
<polygon fill="#f4fc7a" stroke="#f4fc7a" points="639.913,-138.198 650.339,-134.799 643.612,-134.834 647.311,-131.47 647.311,-131.47 647.311,-131.47 643.612,-134.834 644.283,-128.141 639.913,-138.198 639.913,-138.198"/>
</g>
<!-- User -->
<g id="node7" class="node"><title>User</title>
<path fill="none" stroke="black" d="M461.698,-430.8C461.698,-430.8 586.302,-430.8 586.302,-430.8 592.302,-430.8 598.302,-436.8 598.302,-442.8 598.302,-442.8 598.302,-569.2 598.302,-569.2 598.302,-575.2 592.302,-581.2 586.302,-581.2 586.302,-581.2 461.698,-581.2 461.698,-581.2 455.698,-581.2 449.698,-575.2 449.698,-569.2 449.698,-569.2 449.698,-442.8 449.698,-442.8 449.698,-436.8 455.698,-430.8 461.698,-430.8"/>
<text text-anchor="middle" x="524" y="-563.2" font-family="Times,serif" font-size="14.00">User</text>
<polyline fill="none" stroke="black" points="449.698,-556.4 598.302,-556.4 "/>
<text text-anchor="start" x="457.698" y="-538.4" font-family="Times,serif" font-size="14.00">id :integer</text>
<text text-anchor="start" x="457.698" y="-521.6" font-family="Times,serif" font-size="14.00">username :string</text>
<text text-anchor="start" x="457.698" y="-504.8" font-family="Times,serif" font-size="14.00">email :string</text>
<text text-anchor="start" x="457.698" y="-488" font-family="Times,serif" font-size="14.00">password_digest :string</text>
<text text-anchor="start" x="457.698" y="-471.2" font-family="Times,serif" font-size="14.00">created_at :datetime</text>
<text text-anchor="start" x="457.698" y="-454.4" font-family="Times,serif" font-size="14.00">updated_at :datetime</text>
<text text-anchor="start" x="457.698" y="-437.6" font-family="Times,serif" font-size="14.00">role :string</text>
</g>
<!-- User&#45;&gt;Recipe -->
<g id="edge9" class="edge"><title>User&#45;&gt;Recipe</title>
<path fill="none" stroke="#b96af3" d="M504.235,-422.451C502.605,-415.645 500.942,-408.701 499.275,-401.738"/>
<ellipse fill="none" stroke="#b96af3" cx="505.231" cy="-426.613" rx="4.00001" ry="4.00001"/>
<polygon fill="#b96af3" stroke="#b96af3" points="499.162,-401.263 501.209,-390.49 497.997,-396.4 496.833,-391.538 496.833,-391.538 496.833,-391.538 497.997,-396.4 492.457,-392.586 499.162,-401.263 499.162,-401.263"/>
</g>
</g>
</svg>
