<?xml version="1.0" encoding="UTF-8" standalone="no"?>
<!DOCTYPE svg PUBLIC "-//W3C//DTD SVG 1.1//EN"
 "http://www.w3.org/Graphics/SVG/1.1/DTD/svg11.dtd">
<!-- Generated by graphviz version 2.30.1 (20130711.0844)
 -->
<!-- Title: models_diagram Pages: 1 -->
<svg width="718pt" height="258pt"
 viewBox="0.00 0.00 718.00 258.00" xmlns="http://www.w3.org/2000/svg" xmlns:xlink="http://www.w3.org/1999/xlink">
<g id="graph0" class="graph" transform="scale(1 1) rotate(0) translate(4 254)">
<title>models_diagram</title>
<polygon fill="white" stroke="white" points="-4,5 -4,-254 715,-254 715,5 -4,5"/>
<!-- _diagram_info -->
<g id="node1" class="node"><title>_diagram_info</title>
<text text-anchor="start" x="7.31226" y="-233" font-family="Times,serif" font-size="13.00">Models diagram</text>
<text text-anchor="start" x="7.31226" y="-217.4" font-family="Times,serif" font-size="13.00">Date: Jul 11 2013 &#45; 09:46</text>
<text text-anchor="start" x="7.31226" y="-201.8" font-family="Times,serif" font-size="13.00">Migration version: 20130710103018</text>
<text text-anchor="start" x="7.31226" y="-186.2" font-family="Times,serif" font-size="13.00">Generated by RailRoady 1.1.0</text>
<text text-anchor="start" x="7.31226" y="-170.6" font-family="Times,serif" font-size="13.00">http://railroady.prestonlee.com</text>
</g>
<!-- Ability -->
<g id="node2" class="node"><title>Ability</title>
<polygon fill="none" stroke="black" points="280.255,-225 225.745,-225 225.745,-189 280.255,-189 280.255,-225"/>
<text text-anchor="middle" x="253" y="-201.4" font-family="Times,serif" font-size="14.00">Ability</text>
</g>
<!-- Category -->
<g id="node3" class="node"><title>Category</title>
<ellipse fill="none" stroke="black" cx="345" cy="-207" rx="46.1519" ry="18"/>
<text text-anchor="middle" x="345" y="-201.4" font-family="Times,serif" font-size="14.00">Category</text>
</g>
<!-- Recipe -->
<g id="node5" class="node"><title>Recipe</title>
<ellipse fill="none" stroke="black" cx="400" cy="-108" rx="37.2739" ry="18"/>
<text text-anchor="middle" x="400" y="-102.4" font-family="Times,serif" font-size="14.00">Recipe</text>
</g>
<!-- Category&#45;&gt;Recipe -->
<g id="edge1" class="edge"><title>Category&#45;&gt;Recipe</title>
<path fill="none" stroke="#2bec3e" d="M358.611,-181.995C366.752,-167.637 377.096,-149.395 385.406,-134.739"/>
<ellipse fill="none" stroke="#2bec3e" cx="356.553" cy="-185.624" rx="4.00002" ry="4.00002"/>
<polygon fill="#2bec3e" stroke="#2bec3e" points="385.597,-134.401 394.444,-127.922 388.063,-130.052 390.53,-125.702 390.53,-125.702 390.53,-125.702 388.063,-130.052 386.615,-123.483 385.597,-134.401 385.597,-134.401"/>
</g>
<!-- Ingredient -->
<g id="node4" class="node"><title>Ingredient</title>
<ellipse fill="none" stroke="black" cx="567" cy="-207" rx="50.5802" ry="18"/>
<text text-anchor="middle" x="567" y="-201.4" font-family="Times,serif" font-size="14.00">Ingredient</text>
</g>
<!-- RecipeIngredient -->
<g id="node6" class="node"><title>RecipeIngredient</title>
<ellipse fill="none" stroke="black" cx="633" cy="-18" rx="77.2975" ry="18"/>
<text text-anchor="middle" x="633" y="-12.4" font-family="Times,serif" font-size="14.00">RecipeIngredient</text>
</g>
<!-- Ingredient&#45;&gt;RecipeIngredient -->
<g id="edge2" class="edge"><title>Ingredient&#45;&gt;RecipeIngredient</title>
<path fill="none" stroke="#1443c4" d="M575.678,-181.413C588.055,-146.345 610.694,-82.2011 623.505,-45.9021"/>
<ellipse fill="none" stroke="#1443c4" cx="574.305" cy="-185.303" rx="4.00001" ry="4.00001"/>
<polygon fill="#1443c4" stroke="#1443c4" points="623.664,-45.4512 631.236,-37.519 625.328,-40.7363 626.992,-36.0213 626.992,-36.0213 626.992,-36.0213 625.328,-40.7363 622.749,-34.5236 623.664,-45.4512 623.664,-45.4512"/>
</g>
<!-- Ingredient&#45;&gt;Recipe -->
<g id="edge3" class="edge"><title>Ingredient&#45;&gt;Recipe</title>
<path fill="none" stroke="#10bdf4" d="M532.828,-186.152C503.208,-168.947 460.678,-144.244 431.781,-127.46"/>
<polygon fill="#10bdf4" stroke="#10bdf4" points="532.989,-186.245 539.376,-195.159 537.313,-188.756 541.636,-191.268 541.636,-191.268 541.636,-191.268 537.313,-188.756 543.896,-187.377 532.989,-186.245 532.989,-186.245"/>
<polygon fill="#10bdf4" stroke="#10bdf4" points="431.559,-127.33 425.172,-118.417 427.235,-124.819 422.911,-122.308 422.911,-122.308 422.911,-122.308 427.235,-124.819 420.651,-126.199 431.559,-127.33 431.559,-127.33"/>
</g>
<!-- ActsAsTaggableOn::Tagging -->
<g id="node8" class="node"><title>ActsAsTaggableOn::Tagging</title>
<ellipse fill="none" stroke="black" cx="414" cy="-18" rx="123.097" ry="18"/>
<text text-anchor="middle" x="414" y="-12.4" font-family="Times,serif" font-size="14.00">ActsAsTaggableOn::Tagging</text>
</g>
<!-- Recipe&#45;&gt;ActsAsTaggableOn::Tagging -->
<g id="edge4" class="edge"><title>Recipe&#45;&gt;ActsAsTaggableOn::Tagging</title>
<path fill="none" stroke="#665e8e" d="M424.938,-86.3104C428.635,-81.9939 431.903,-77.1687 434,-72 437.493,-63.3924 435.685,-53.9216 432.014,-45.3963"/>
<ellipse fill="none" stroke="#665e8e" cx="422.054" cy="-89.3499" rx="4.00002" ry="4.00002"/>
<polygon fill="#665e8e" stroke="#665e8e" points="431.879,-45.138 431.25,-34.1901 429.569,-40.7036 427.259,-36.2691 427.259,-36.2691 427.259,-36.2691 429.569,-40.7036 423.268,-38.3482 431.879,-45.138 431.879,-45.138"/>
<text text-anchor="middle" x="458.721" y="-57.4" font-family="Times,serif" font-size="14.00">taggings</text>
</g>
<!-- ActsAsTaggableOn::Tag -->
<g id="node9" class="node"><title>ActsAsTaggableOn::Tag</title>
<ellipse fill="none" stroke="black" cx="166" cy="-18" rx="106.344" ry="18"/>
<text text-anchor="middle" x="166" y="-12.4" font-family="Times,serif" font-size="14.00">ActsAsTaggableOn::Tag</text>
</g>
<!-- Recipe&#45;&gt;ActsAsTaggableOn::Tag -->
<g id="edge5" class="edge"><title>Recipe&#45;&gt;ActsAsTaggableOn::Tag</title>
<path fill="none" stroke="#237e8d" d="M352.629,-104.588C315.742,-101.102 264.163,-92.6164 223.572,-72 209.732,-64.9702 196.776,-53.6567 186.674,-43.2843"/>
<polygon fill="#237e8d" stroke="#237e8d" points="352.658,-104.59 362.238,-109.928 357.64,-105.017 362.622,-105.444 362.622,-105.444 362.622,-105.444 357.64,-105.017 363.006,-100.961 352.658,-104.59 352.658,-104.59"/>
<polygon fill="#237e8d" stroke="#237e8d" points="186.673,-43.2832 183.14,-32.9021 183.261,-39.6278 179.85,-35.9725 179.85,-35.9725 179.85,-35.9725 183.261,-39.6278 176.56,-39.0429 186.673,-43.2832 186.673,-43.2832"/>
<text text-anchor="middle" x="250.214" y="-57.4" font-family="Times,serif" font-size="14.00">base_tags</text>
</g>
<!-- Recipe&#45;&gt;ActsAsTaggableOn::Tagging -->
<g id="edge6" class="edge"><title>Recipe&#45;&gt;ActsAsTaggableOn::Tagging</title>
<path fill="none" stroke="#1f4a50" d="M371.491,-88.3734C360.354,-78.6578 351.687,-66.2642 358.455,-54 361.006,-49.3783 364.451,-45.2834 368.384,-41.6759"/>
<ellipse fill="none" stroke="#1f4a50" cx="374.731" cy="-90.9736" rx="4.00002" ry="4.00002"/>
<polygon fill="#1f4a50" stroke="#1f4a50" points="368.587,-41.5166 379.227,-38.8638 372.514,-38.4227 376.442,-35.3288 376.442,-35.3288 376.442,-35.3288 372.514,-38.4227 373.658,-31.7937 368.587,-41.5166 368.587,-41.5166"/>
<text text-anchor="middle" x="393.772" y="-57.4" font-family="Times,serif" font-size="14.00">tag_taggings</text>
</g>
<!-- Recipe&#45;&gt;ActsAsTaggableOn::Tag -->
<g id="edge7" class="edge"><title>Recipe&#45;&gt;ActsAsTaggableOn::Tag</title>
<path fill="none" stroke="#858eb9" d="M365.022,-90.6179C340.85,-79.591 307.805,-65.0949 278,-54 261.641,-47.9105 243.686,-41.9765 227.036,-36.776"/>
<polygon fill="#858eb9" stroke="#858eb9" points="365.063,-90.6367 372.273,-98.8992 369.607,-92.7232 374.151,-94.8097 374.151,-94.8097 374.151,-94.8097 369.607,-92.7232 376.029,-90.7202 365.063,-90.6367 365.063,-90.6367"/>
<polygon fill="#858eb9" stroke="#858eb9" points="226.961,-36.7528 218.733,-29.5034 222.183,-35.278 217.406,-33.8032 217.406,-33.8032 217.406,-33.8032 222.183,-35.278 216.078,-38.103 226.961,-36.7528 226.961,-36.7528"/>
<text text-anchor="middle" x="333.276" y="-57.4" font-family="Times,serif" font-size="14.00">tags</text>
</g>
<!-- Recipe&#45;&gt;RecipeIngredient -->
<g id="edge8" class="edge"><title>Recipe&#45;&gt;RecipeIngredient</title>
<path fill="none" stroke="#7645d2" d="M436.23,-93.3165C476.149,-78.2399 540.538,-53.9213 584.718,-37.2352"/>
<ellipse fill="none" stroke="#7645d2" cx="432.312" cy="-94.7962" rx="4.00001" ry="4.00001"/>
<polygon fill="#7645d2" stroke="#7645d2" points="584.744,-37.2253 595.689,-37.9018 589.422,-35.4587 594.099,-33.6921 594.099,-33.6921 594.099,-33.6921 589.422,-35.4587 592.509,-29.4823 584.744,-37.2253 584.744,-37.2253"/>
</g>
<!-- User -->
<g id="node7" class="node"><title>User</title>
<ellipse fill="none" stroke="black" cx="439" cy="-207" rx="28.9087" ry="18"/>
<text text-anchor="middle" x="439" y="-201.4" font-family="Times,serif" font-size="14.00">User</text>
</g>
<!-- User&#45;&gt;Recipe -->
<g id="edge9" class="edge"><title>User&#45;&gt;Recipe</title>
<path fill="none" stroke="#aea388" d="M429.179,-181.574C423.517,-167.492 416.397,-149.782 410.608,-135.383"/>
<ellipse fill="none" stroke="#aea388" cx="430.715" cy="-185.393" rx="4.00001" ry="4.00001"/>
<polygon fill="#aea388" stroke="#aea388" points="410.577,-135.306 411.021,-124.349 408.712,-130.667 406.846,-126.028 406.846,-126.028 406.846,-126.028 408.712,-130.667 402.671,-127.707 410.577,-135.306 410.577,-135.306"/>
</g>
</g>
</svg>
